<mxfile host="app.diagrams.net" modified="2023-07-10T03:07:25.034Z" agent="Mozilla/5.0 (Windows NT 10.0; Win64; x64) AppleWebKit/537.36 (KHTML, like Gecko) Chrome/114.0.0.0 Safari/537.36" etag="qiyDaMrcM8WlT4Zvbu7e" version="21.6.1" type="github">
  <diagram name="페이지-1" id="81qH2qodSaiin3HebWYd">
    <mxGraphModel dx="1248" dy="-1133" grid="1" gridSize="10" guides="1" tooltips="1" connect="1" arrows="1" fold="1" page="0" pageScale="1" pageWidth="827" pageHeight="1169" math="0" shadow="0">
      <root>
        <mxCell id="0" />
        <mxCell id="1" parent="0" />
        <mxCell id="4DdTj5OMiAMX2472lr8G-1" value="&lt;font style=&quot;font-size: 14px;&quot;&gt;AWS Cloud&lt;/font&gt;" style="points=[[0,0],[0.25,0],[0.5,0],[0.75,0],[1,0],[1,0.25],[1,0.5],[1,0.75],[1,1],[0.75,1],[0.5,1],[0.25,1],[0,1],[0,0.75],[0,0.5],[0,0.25]];outlineConnect=0;gradientColor=none;html=1;whiteSpace=wrap;fontSize=12;fontStyle=0;container=0;pointerEvents=0;collapsible=0;recursiveResize=0;shape=mxgraph.aws4.group;grIcon=mxgraph.aws4.group_aws_cloud;strokeColor=#232F3E;fillColor=none;verticalAlign=top;align=left;spacingLeft=30;fontColor=#232F3E;dashed=0;" parent="1" vertex="1">
          <mxGeometry x="1210" y="2530" width="1110" height="825" as="geometry" />
        </mxCell>
        <mxCell id="4DdTj5OMiAMX2472lr8G-2" value="" style="group" parent="1" vertex="1" connectable="0">
          <mxGeometry x="1070" y="2801.12" width="78" height="100.88" as="geometry" />
        </mxCell>
        <mxCell id="4DdTj5OMiAMX2472lr8G-3" value="" style="sketch=0;outlineConnect=0;fontColor=#232F3E;gradientColor=none;fillColor=#232F3D;strokeColor=none;dashed=0;verticalLabelPosition=bottom;verticalAlign=top;align=center;html=1;fontSize=12;fontStyle=0;aspect=fixed;pointerEvents=1;shape=mxgraph.aws4.user;" parent="4DdTj5OMiAMX2472lr8G-2" vertex="1">
          <mxGeometry width="78" height="78" as="geometry" />
        </mxCell>
        <mxCell id="4DdTj5OMiAMX2472lr8G-4" value="admin" style="rounded=1;html=1;shadow=0;dashed=0;whiteSpace=wrap;fontSize=10;fillColor=#666666;align=center;strokeColor=#4D4D4D;fontColor=#ffffff;" parent="4DdTj5OMiAMX2472lr8G-2" vertex="1">
          <mxGeometry x="7" y="84" width="60" height="16.88" as="geometry" />
        </mxCell>
        <mxCell id="4DdTj5OMiAMX2472lr8G-5" value="Region (ap-northeast-2)" style="points=[[0,0],[0.25,0],[0.5,0],[0.75,0],[1,0],[1,0.25],[1,0.5],[1,0.75],[1,1],[0.75,1],[0.5,1],[0.25,1],[0,1],[0,0.75],[0,0.5],[0,0.25]];outlineConnect=0;gradientColor=none;html=1;whiteSpace=wrap;fontSize=12;fontStyle=0;container=0;pointerEvents=0;collapsible=0;recursiveResize=0;shape=mxgraph.aws4.group;grIcon=mxgraph.aws4.group_region;strokeColor=#147EBA;fillColor=none;verticalAlign=top;align=left;spacingLeft=30;fontColor=#147EBA;dashed=1;" parent="1" vertex="1">
          <mxGeometry x="1240" y="2660" width="1070" height="685" as="geometry" />
        </mxCell>
        <mxCell id="4DdTj5OMiAMX2472lr8G-6" value="&lt;font color=&quot;#248814&quot;&gt;Prod VPC (192.168.0.0/16)&lt;/font&gt;" style="points=[[0,0],[0.25,0],[0.5,0],[0.75,0],[1,0],[1,0.25],[1,0.5],[1,0.75],[1,1],[0.75,1],[0.5,1],[0.25,1],[0,1],[0,0.75],[0,0.5],[0,0.25]];outlineConnect=0;gradientColor=none;html=1;whiteSpace=wrap;fontSize=12;fontStyle=0;container=0;pointerEvents=0;collapsible=0;recursiveResize=0;shape=mxgraph.aws4.group;grIcon=mxgraph.aws4.group_vpc;strokeColor=#248814;fillColor=none;verticalAlign=top;align=left;spacingLeft=30;fontColor=#AAB7B8;dashed=0;" parent="1" vertex="1">
          <mxGeometry x="1360" y="2690" width="840" height="631" as="geometry" />
        </mxCell>
        <mxCell id="9vAasaOXDANwCtBIAq84-15" style="edgeStyle=orthogonalEdgeStyle;rounded=0;orthogonalLoop=1;jettySize=auto;html=1;exitX=0.5;exitY=0;exitDx=0;exitDy=0;exitPerimeter=0;endArrow=none;endFill=0;" edge="1" parent="1" source="4DdTj5OMiAMX2472lr8G-12" target="9vAasaOXDANwCtBIAq84-8">
          <mxGeometry relative="1" as="geometry">
            <mxPoint x="1813.5" y="2619" as="targetPoint" />
            <Array as="points">
              <mxPoint x="2260" y="2775" />
              <mxPoint x="2260" y="2440" />
            </Array>
          </mxGeometry>
        </mxCell>
        <mxCell id="4DdTj5OMiAMX2472lr8G-12" value="" style="sketch=0;points=[[0,0,0],[0.25,0,0],[0.5,0,0],[0.75,0,0],[1,0,0],[0,1,0],[0.25,1,0],[0.5,1,0],[0.75,1,0],[1,1,0],[0,0.25,0],[0,0.5,0],[0,0.75,0],[1,0.25,0],[1,0.5,0],[1,0.75,0]];outlineConnect=0;fontColor=#232F3E;gradientColor=#60A337;gradientDirection=north;fillColor=#277116;strokeColor=#ffffff;dashed=0;verticalLabelPosition=bottom;verticalAlign=top;align=center;html=1;fontSize=12;fontStyle=0;aspect=fixed;shape=mxgraph.aws4.resourceIcon;resIcon=mxgraph.aws4.s3;" parent="1" vertex="1">
          <mxGeometry x="2230" y="2775" width="58" height="58" as="geometry" />
        </mxCell>
        <mxCell id="4DdTj5OMiAMX2472lr8G-13" style="edgeStyle=orthogonalEdgeStyle;rounded=0;orthogonalLoop=1;jettySize=auto;html=1;exitX=1;exitY=0.25;exitDx=0;exitDy=0;entryX=0.5;entryY=1;entryDx=0;entryDy=0;entryPerimeter=0;" parent="1" source="4DdTj5OMiAMX2472lr8G-30" target="4DdTj5OMiAMX2472lr8G-12" edge="1">
          <mxGeometry relative="1" as="geometry">
            <Array as="points">
              <mxPoint x="2260" y="3182" />
              <mxPoint x="2260" y="2833" />
            </Array>
          </mxGeometry>
        </mxCell>
        <mxCell id="4DdTj5OMiAMX2472lr8G-16" value="" style="endArrow=classic;html=1;rounded=0;exitX=0.5;exitY=1;exitDx=0;exitDy=0;entryX=0;entryY=0.75;entryDx=0;entryDy=0;entryPerimeter=0;" parent="1" target="9vAasaOXDANwCtBIAq84-1" edge="1">
          <mxGeometry width="50" height="50" relative="1" as="geometry">
            <mxPoint x="1990.75" y="3269" as="sourcePoint" />
            <mxPoint x="2187.075" y="3304.14" as="targetPoint" />
            <Array as="points">
              <mxPoint x="1991" y="3303" />
            </Array>
          </mxGeometry>
        </mxCell>
        <mxCell id="4DdTj5OMiAMX2472lr8G-17" value="" style="endArrow=classic;html=1;rounded=0;entryX=0;entryY=0.75;entryDx=0;entryDy=0;exitX=0.5;exitY=1;exitDx=0;exitDy=0;entryPerimeter=0;" parent="1" target="9vAasaOXDANwCtBIAq84-1" edge="1">
          <mxGeometry width="50" height="50" relative="1" as="geometry">
            <mxPoint x="1586" y="3269" as="sourcePoint" />
            <mxPoint x="2187.075" y="3303.615" as="targetPoint" />
            <Array as="points">
              <mxPoint x="1586" y="3303" />
            </Array>
          </mxGeometry>
        </mxCell>
        <mxCell id="4DdTj5OMiAMX2472lr8G-18" value="Availability Zone (ap-northeast-2a)" style="fillColor=none;strokeColor=#147EBA;dashed=1;verticalAlign=top;fontStyle=0;fontColor=#147EBA;whiteSpace=wrap;html=1;" parent="1" vertex="1">
          <mxGeometry x="1400" y="2741" width="356" height="543" as="geometry" />
        </mxCell>
        <mxCell id="9vAasaOXDANwCtBIAq84-3" style="edgeStyle=orthogonalEdgeStyle;rounded=0;orthogonalLoop=1;jettySize=auto;html=1;entryX=1;entryY=0.25;entryDx=0;entryDy=0;entryPerimeter=0;exitX=0;exitY=0.75;exitDx=0;exitDy=0;" edge="1" parent="1" source="4DdTj5OMiAMX2472lr8G-19" target="9vAasaOXDANwCtBIAq84-2">
          <mxGeometry relative="1" as="geometry">
            <mxPoint x="1508" y="2810" as="sourcePoint" />
            <Array as="points">
              <mxPoint x="1380" y="2874" />
              <mxPoint x="1380" y="2982" />
            </Array>
          </mxGeometry>
        </mxCell>
        <mxCell id="9vAasaOXDANwCtBIAq84-18" style="edgeStyle=orthogonalEdgeStyle;rounded=0;orthogonalLoop=1;jettySize=auto;html=1;startArrow=classic;startFill=1;endArrow=none;endFill=0;" edge="1" parent="1" source="4DdTj5OMiAMX2472lr8G-19" target="4DdTj5OMiAMX2472lr8G-3">
          <mxGeometry relative="1" as="geometry">
            <Array as="points">
              <mxPoint x="1330" y="2830" />
              <mxPoint x="1330" y="2830" />
            </Array>
          </mxGeometry>
        </mxCell>
        <mxCell id="4DdTj5OMiAMX2472lr8G-19" value="Subnet-01 (Public, 192.168.10.0/24)" style="points=[[0,0],[0.25,0],[0.5,0],[0.75,0],[1,0],[1,0.25],[1,0.5],[1,0.75],[1,1],[0.75,1],[0.5,1],[0.25,1],[0,1],[0,0.75],[0,0.5],[0,0.25]];outlineConnect=0;gradientColor=none;html=1;whiteSpace=wrap;fontSize=12;fontStyle=0;container=1;pointerEvents=0;collapsible=0;recursiveResize=0;shape=mxgraph.aws4.group;grIcon=mxgraph.aws4.group_security_group;grStroke=0;strokeColor=#248814;fillColor=#E9F3E6;verticalAlign=top;align=left;spacingLeft=30;fontColor=#248814;dashed=0;" parent="1" vertex="1">
          <mxGeometry x="1508" y="2775" width="130" height="132" as="geometry" />
        </mxCell>
        <mxCell id="4DdTj5OMiAMX2472lr8G-20" value="" style="outlineConnect=0;dashed=0;verticalLabelPosition=bottom;verticalAlign=top;align=center;html=1;shape=mxgraph.aws3.ec2;fillColor=#F58534;gradientColor=none;" parent="4DdTj5OMiAMX2472lr8G-19" vertex="1">
          <mxGeometry x="43.200000000000045" y="50" width="43.6" height="53" as="geometry" />
        </mxCell>
        <mxCell id="4DdTj5OMiAMX2472lr8G-21" value="bastion" style="rounded=1;html=1;shadow=0;dashed=0;whiteSpace=wrap;fontSize=10;fillColor=#666666;align=center;strokeColor=#4D4D4D;fontColor=#ffffff;" parent="4DdTj5OMiAMX2472lr8G-19" vertex="1">
          <mxGeometry x="35" y="110" width="60" height="16.88" as="geometry" />
        </mxCell>
        <mxCell id="4DdTj5OMiAMX2472lr8G-22" value="Subnet-03 (Private, 192.168.30.0/24)" style="points=[[0,0],[0.25,0],[0.5,0],[0.75,0],[1,0],[1,0.25],[1,0.5],[1,0.75],[1,1],[0.75,1],[0.5,1],[0.25,1],[0,1],[0,0.75],[0,0.5],[0,0.25]];outlineConnect=0;gradientColor=none;html=1;whiteSpace=wrap;fontSize=12;fontStyle=0;container=1;pointerEvents=0;collapsible=0;recursiveResize=0;shape=mxgraph.aws4.group;grIcon=mxgraph.aws4.group_security_group;grStroke=0;strokeColor=#147EBA;fillColor=#E6F2F8;verticalAlign=top;align=left;spacingLeft=30;fontColor=#147EBA;dashed=0;" parent="1" vertex="1">
          <mxGeometry x="1434.5" y="2932" width="300" height="338" as="geometry" />
        </mxCell>
        <mxCell id="4DdTj5OMiAMX2472lr8G-23" style="edgeStyle=none;rounded=0;orthogonalLoop=1;jettySize=auto;html=1;entryX=0;entryY=0.75;entryDx=0;entryDy=0;" parent="4DdTj5OMiAMX2472lr8G-22" edge="1">
          <mxGeometry relative="1" as="geometry">
            <mxPoint x="30" y="118.75" as="sourcePoint" />
            <mxPoint x="30" y="118.75" as="targetPoint" />
          </mxGeometry>
        </mxCell>
        <mxCell id="4DdTj5OMiAMX2472lr8G-24" value="Availability Zone (ap-northeast-2c )" style="fillColor=none;strokeColor=#147EBA;dashed=1;verticalAlign=top;fontStyle=0;fontColor=#147EBA;whiteSpace=wrap;html=1;" parent="1" vertex="1">
          <mxGeometry x="1815" y="2742" width="351.5" height="547" as="geometry" />
        </mxCell>
        <mxCell id="4DdTj5OMiAMX2472lr8G-25" value="Subnet-04 (Private, 192.168.40.0/24)" style="points=[[0,0],[0.25,0],[0.5,0],[0.75,0],[1,0],[1,0.25],[1,0.5],[1,0.75],[1,1],[0.75,1],[0.5,1],[0.25,1],[0,1],[0,0.75],[0,0.5],[0,0.25]];outlineConnect=0;gradientColor=none;html=1;whiteSpace=wrap;fontSize=12;fontStyle=0;container=1;pointerEvents=0;collapsible=0;recursiveResize=0;shape=mxgraph.aws4.group;grIcon=mxgraph.aws4.group_security_group;grStroke=0;strokeColor=#147EBA;fillColor=#E6F2F8;verticalAlign=top;align=left;spacingLeft=30;fontColor=#147EBA;dashed=0;" parent="1" vertex="1">
          <mxGeometry x="1840.75" y="2932" width="300" height="338" as="geometry" />
        </mxCell>
        <mxCell id="4DdTj5OMiAMX2472lr8G-26" value="Auto Scaling group" style="points=[[0,0],[0.25,0],[0.5,0],[0.75,0],[1,0],[1,0.25],[1,0.5],[1,0.75],[1,1],[0.75,1],[0.5,1],[0.25,1],[0,1],[0,0.75],[0,0.5],[0,0.25]];outlineConnect=0;gradientColor=none;html=1;whiteSpace=wrap;fontSize=12;fontStyle=0;container=1;pointerEvents=0;collapsible=0;recursiveResize=0;shape=mxgraph.aws4.groupCenter;grIcon=mxgraph.aws4.group_auto_scaling_group;grStroke=1;strokeColor=#D86613;fillColor=none;verticalAlign=top;align=center;fontColor=#D86613;dashed=1;spacingTop=25;" parent="1" vertex="1">
          <mxGeometry x="1472" y="2974" width="627" height="105" as="geometry" />
        </mxCell>
        <mxCell id="4DdTj5OMiAMX2472lr8G-27" value="web" style="rounded=1;html=1;shadow=0;dashed=0;whiteSpace=wrap;fontSize=10;fillColor=#666666;align=center;strokeColor=#4D4D4D;fontColor=#ffffff;" parent="4DdTj5OMiAMX2472lr8G-26" vertex="1">
          <mxGeometry x="10" y="10" width="60" height="16.88" as="geometry" />
        </mxCell>
        <mxCell id="4DdTj5OMiAMX2472lr8G-28" style="edgeStyle=none;rounded=0;orthogonalLoop=1;jettySize=auto;html=1;entryX=0;entryY=0.75;entryDx=0;entryDy=0;" parent="1" source="4DdTj5OMiAMX2472lr8G-26" target="4DdTj5OMiAMX2472lr8G-26" edge="1">
          <mxGeometry relative="1" as="geometry" />
        </mxCell>
        <mxCell id="4DdTj5OMiAMX2472lr8G-29" value="" style="sketch=0;points=[[0,0,0],[0.25,0,0],[0.5,0,0],[0.75,0,0],[1,0,0],[0,1,0],[0.25,1,0],[0.5,1,0],[0.75,1,0],[1,1,0],[0,0.25,0],[0,0.5,0],[0,0.75,0],[1,0.25,0],[1,0.5,0],[1,0.75,0]];outlineConnect=0;fontColor=#232F3E;gradientColor=#945DF2;gradientDirection=north;fillColor=#5A30B5;strokeColor=#ffffff;dashed=0;verticalLabelPosition=bottom;verticalAlign=top;align=center;html=1;fontSize=12;fontStyle=0;aspect=fixed;shape=mxgraph.aws4.resourceIcon;resIcon=mxgraph.aws4.elastic_load_balancing;" parent="1" vertex="1">
          <mxGeometry x="1755" y="3085" width="59" height="59" as="geometry" />
        </mxCell>
        <mxCell id="4DdTj5OMiAMX2472lr8G-30" value="Auto Scaling group" style="points=[[0,0],[0.25,0],[0.5,0],[0.75,0],[1,0],[1,0.25],[1,0.5],[1,0.75],[1,1],[0.75,1],[0.5,1],[0.25,1],[0,1],[0,0.75],[0,0.5],[0,0.25]];outlineConnect=0;gradientColor=none;html=1;whiteSpace=wrap;fontSize=12;fontStyle=0;container=1;pointerEvents=0;collapsible=0;recursiveResize=0;shape=mxgraph.aws4.groupCenter;grIcon=mxgraph.aws4.group_auto_scaling_group;grStroke=1;strokeColor=#D86613;fillColor=none;verticalAlign=top;align=center;fontColor=#D86613;dashed=1;spacingTop=25;" parent="1" vertex="1">
          <mxGeometry x="1471" y="3156" width="627" height="105" as="geometry" />
        </mxCell>
        <mxCell id="4DdTj5OMiAMX2472lr8G-31" value="app" style="rounded=1;html=1;shadow=0;dashed=0;whiteSpace=wrap;fontSize=10;fillColor=#666666;align=center;strokeColor=#4D4D4D;fontColor=#ffffff;" parent="4DdTj5OMiAMX2472lr8G-30" vertex="1">
          <mxGeometry x="10" y="12" width="60" height="16.88" as="geometry" />
        </mxCell>
        <mxCell id="4DdTj5OMiAMX2472lr8G-32" value="" style="sketch=0;outlineConnect=0;fontColor=#232F3E;gradientColor=none;fillColor=#D45B07;strokeColor=none;dashed=0;verticalLabelPosition=bottom;verticalAlign=top;align=center;html=1;fontSize=12;fontStyle=0;aspect=fixed;pointerEvents=1;shape=mxgraph.aws4.container_2;" parent="1" vertex="1">
          <mxGeometry x="1498" y="3026" width="54.2" height="35" as="geometry" />
        </mxCell>
        <mxCell id="4DdTj5OMiAMX2472lr8G-33" value="" style="sketch=0;outlineConnect=0;fontColor=#232F3E;gradientColor=none;fillColor=#D45B07;strokeColor=none;dashed=0;verticalLabelPosition=bottom;verticalAlign=top;align=center;html=1;fontSize=12;fontStyle=0;aspect=fixed;pointerEvents=1;shape=mxgraph.aws4.container_2;" parent="1" vertex="1">
          <mxGeometry x="1578.38" y="3026" width="54.2" height="35" as="geometry" />
        </mxCell>
        <mxCell id="4DdTj5OMiAMX2472lr8G-34" value="" style="sketch=0;outlineConnect=0;fontColor=#232F3E;gradientColor=none;fillColor=#D45B07;strokeColor=none;dashed=0;verticalLabelPosition=bottom;verticalAlign=top;align=center;html=1;fontSize=12;fontStyle=0;aspect=fixed;pointerEvents=1;shape=mxgraph.aws4.container_2;" parent="1" vertex="1">
          <mxGeometry x="1657.98" y="3026" width="54.2" height="35" as="geometry" />
        </mxCell>
        <mxCell id="4DdTj5OMiAMX2472lr8G-35" value="" style="sketch=0;outlineConnect=0;fontColor=#232F3E;gradientColor=none;fillColor=#D45B07;strokeColor=none;dashed=0;verticalLabelPosition=bottom;verticalAlign=top;align=center;html=1;fontSize=12;fontStyle=0;aspect=fixed;pointerEvents=1;shape=mxgraph.aws4.container_2;" parent="1" vertex="1">
          <mxGeometry x="1867" y="3026" width="54.2" height="35" as="geometry" />
        </mxCell>
        <mxCell id="4DdTj5OMiAMX2472lr8G-36" value="" style="sketch=0;outlineConnect=0;fontColor=#232F3E;gradientColor=none;fillColor=#D45B07;strokeColor=none;dashed=0;verticalLabelPosition=bottom;verticalAlign=top;align=center;html=1;fontSize=12;fontStyle=0;aspect=fixed;pointerEvents=1;shape=mxgraph.aws4.container_2;" parent="1" vertex="1">
          <mxGeometry x="1947.38" y="3026" width="54.2" height="35" as="geometry" />
        </mxCell>
        <mxCell id="4DdTj5OMiAMX2472lr8G-37" value="" style="sketch=0;outlineConnect=0;fontColor=#232F3E;gradientColor=none;fillColor=#D45B07;strokeColor=none;dashed=0;verticalLabelPosition=bottom;verticalAlign=top;align=center;html=1;fontSize=12;fontStyle=0;aspect=fixed;pointerEvents=1;shape=mxgraph.aws4.container_2;" parent="1" vertex="1">
          <mxGeometry x="2026.98" y="3026" width="54.2" height="35" as="geometry" />
        </mxCell>
        <mxCell id="4DdTj5OMiAMX2472lr8G-38" value="" style="sketch=0;outlineConnect=0;fontColor=#232F3E;gradientColor=none;fillColor=#D45B07;strokeColor=none;dashed=0;verticalLabelPosition=bottom;verticalAlign=top;align=center;html=1;fontSize=12;fontStyle=0;aspect=fixed;pointerEvents=1;shape=mxgraph.aws4.container_2;" parent="1" vertex="1">
          <mxGeometry x="1498" y="3208" width="54.2" height="35" as="geometry" />
        </mxCell>
        <mxCell id="4DdTj5OMiAMX2472lr8G-39" value="" style="sketch=0;outlineConnect=0;fontColor=#232F3E;gradientColor=none;fillColor=#D45B07;strokeColor=none;dashed=0;verticalLabelPosition=bottom;verticalAlign=top;align=center;html=1;fontSize=12;fontStyle=0;aspect=fixed;pointerEvents=1;shape=mxgraph.aws4.container_2;" parent="1" vertex="1">
          <mxGeometry x="1578.38" y="3208" width="54.2" height="35" as="geometry" />
        </mxCell>
        <mxCell id="4DdTj5OMiAMX2472lr8G-40" value="" style="sketch=0;outlineConnect=0;fontColor=#232F3E;gradientColor=none;fillColor=#D45B07;strokeColor=none;dashed=0;verticalLabelPosition=bottom;verticalAlign=top;align=center;html=1;fontSize=12;fontStyle=0;aspect=fixed;pointerEvents=1;shape=mxgraph.aws4.container_2;" parent="1" vertex="1">
          <mxGeometry x="1657.98" y="3208" width="54.2" height="35" as="geometry" />
        </mxCell>
        <mxCell id="4DdTj5OMiAMX2472lr8G-41" value="" style="sketch=0;outlineConnect=0;fontColor=#232F3E;gradientColor=none;fillColor=#D45B07;strokeColor=none;dashed=0;verticalLabelPosition=bottom;verticalAlign=top;align=center;html=1;fontSize=12;fontStyle=0;aspect=fixed;pointerEvents=1;shape=mxgraph.aws4.container_2;" parent="1" vertex="1">
          <mxGeometry x="1867" y="3208" width="54.2" height="35" as="geometry" />
        </mxCell>
        <mxCell id="4DdTj5OMiAMX2472lr8G-42" value="" style="sketch=0;outlineConnect=0;fontColor=#232F3E;gradientColor=none;fillColor=#D45B07;strokeColor=none;dashed=0;verticalLabelPosition=bottom;verticalAlign=top;align=center;html=1;fontSize=12;fontStyle=0;aspect=fixed;pointerEvents=1;shape=mxgraph.aws4.container_2;" parent="1" vertex="1">
          <mxGeometry x="1947.38" y="3208" width="54.2" height="35" as="geometry" />
        </mxCell>
        <mxCell id="4DdTj5OMiAMX2472lr8G-43" value="" style="sketch=0;outlineConnect=0;fontColor=#232F3E;gradientColor=none;fillColor=#D45B07;strokeColor=none;dashed=0;verticalLabelPosition=bottom;verticalAlign=top;align=center;html=1;fontSize=12;fontStyle=0;aspect=fixed;pointerEvents=1;shape=mxgraph.aws4.container_2;" parent="1" vertex="1">
          <mxGeometry x="2026.98" y="3208" width="54.2" height="35" as="geometry" />
        </mxCell>
        <mxCell id="9vAasaOXDANwCtBIAq84-5" style="edgeStyle=orthogonalEdgeStyle;rounded=0;orthogonalLoop=1;jettySize=auto;html=1;exitX=0;exitY=0.5;exitDx=0;exitDy=0;startArrow=classic;startFill=1;endArrow=none;endFill=0;" edge="1" parent="1" source="4DdTj5OMiAMX2472lr8G-44" target="4DdTj5OMiAMX2472lr8G-3">
          <mxGeometry relative="1" as="geometry">
            <Array as="points">
              <mxPoint x="1870" y="2836" />
              <mxPoint x="1870" y="2730" />
              <mxPoint x="1190" y="2730" />
              <mxPoint x="1190" y="2830" />
            </Array>
          </mxGeometry>
        </mxCell>
        <mxCell id="4DdTj5OMiAMX2472lr8G-44" value="Subnet-02 (Public, 192.168.20.0/24)" style="points=[[0,0],[0.25,0],[0.5,0],[0.75,0],[1,0],[1,0.25],[1,0.5],[1,0.75],[1,1],[0.75,1],[0.5,1],[0.25,1],[0,1],[0,0.75],[0,0.5],[0,0.25]];outlineConnect=0;gradientColor=none;html=1;whiteSpace=wrap;fontSize=12;fontStyle=0;container=1;pointerEvents=0;collapsible=0;recursiveResize=0;shape=mxgraph.aws4.group;grIcon=mxgraph.aws4.group_security_group;grStroke=0;strokeColor=#248814;fillColor=#E9F3E6;verticalAlign=top;align=left;spacingLeft=30;fontColor=#248814;dashed=0;" parent="1" vertex="1">
          <mxGeometry x="1921.1999999999998" y="2770" width="130" height="132" as="geometry" />
        </mxCell>
        <mxCell id="4DdTj5OMiAMX2472lr8G-45" value="" style="outlineConnect=0;dashed=0;verticalLabelPosition=bottom;verticalAlign=top;align=center;html=1;shape=mxgraph.aws3.ec2;fillColor=#F58534;gradientColor=none;" parent="4DdTj5OMiAMX2472lr8G-44" vertex="1">
          <mxGeometry x="43.200000000000045" y="50" width="43.6" height="53" as="geometry" />
        </mxCell>
        <mxCell id="4DdTj5OMiAMX2472lr8G-46" value="bastion" style="rounded=1;html=1;shadow=0;dashed=0;whiteSpace=wrap;fontSize=10;fillColor=#666666;align=center;strokeColor=#4D4D4D;fontColor=#ffffff;" parent="4DdTj5OMiAMX2472lr8G-44" vertex="1">
          <mxGeometry x="35" y="110" width="60" height="16.88" as="geometry" />
        </mxCell>
        <mxCell id="4DdTj5OMiAMX2472lr8G-47" style="edgeStyle=orthogonalEdgeStyle;rounded=0;orthogonalLoop=1;jettySize=auto;html=1;exitX=0.5;exitY=0;exitDx=0;exitDy=0;exitPerimeter=0;" parent="1" target="4DdTj5OMiAMX2472lr8G-3" edge="1">
          <mxGeometry relative="1" as="geometry">
            <Array as="points">
              <mxPoint x="1785" y="2570" />
              <mxPoint x="1109" y="2570" />
            </Array>
            <mxPoint x="1784.5" y="2590" as="sourcePoint" />
          </mxGeometry>
        </mxCell>
        <mxCell id="4DdTj5OMiAMX2472lr8G-48" value="" style="sketch=0;points=[[0,0,0],[0.25,0,0],[0.5,0,0],[0.75,0,0],[1,0,0],[0,1,0],[0.25,1,0],[0.5,1,0],[0.75,1,0],[1,1,0],[0,0.25,0],[0,0.5,0],[0,0.75,0],[1,0.25,0],[1,0.5,0],[1,0.75,0]];outlineConnect=0;fontColor=#232F3E;gradientColor=#945DF2;gradientDirection=north;fillColor=#5A30B5;strokeColor=#ffffff;dashed=0;verticalLabelPosition=bottom;verticalAlign=top;align=center;html=1;fontSize=12;fontStyle=0;aspect=fixed;shape=mxgraph.aws4.resourceIcon;resIcon=mxgraph.aws4.elastic_load_balancing;" parent="1" vertex="1">
          <mxGeometry x="1755" y="2880" width="59" height="59" as="geometry" />
        </mxCell>
        <mxCell id="4DdTj5OMiAMX2472lr8G-49" style="edgeStyle=orthogonalEdgeStyle;rounded=0;orthogonalLoop=1;jettySize=auto;html=1;exitX=0.5;exitY=1;exitDx=0;exitDy=0;exitPerimeter=0;" parent="1" source="4DdTj5OMiAMX2472lr8G-48" target="4DdTj5OMiAMX2472lr8G-29" edge="1">
          <mxGeometry relative="1" as="geometry" />
        </mxCell>
        <mxCell id="9vAasaOXDANwCtBIAq84-1" value="" style="sketch=0;points=[[0,0,0],[0.25,0,0],[0.5,0,0],[0.75,0,0],[1,0,0],[0,1,0],[0.25,1,0],[0.5,1,0],[0.75,1,0],[1,1,0],[0,0.25,0],[0,0.5,0],[0,0.75,0],[1,0.25,0],[1,0.5,0],[1,0.75,0]];outlineConnect=0;fontColor=#232F3E;gradientColor=#4D72F3;gradientDirection=north;fillColor=#3334B9;strokeColor=#ffffff;dashed=0;verticalLabelPosition=bottom;verticalAlign=top;align=center;html=1;fontSize=12;fontStyle=0;aspect=fixed;shape=mxgraph.aws4.resourceIcon;resIcon=mxgraph.aws4.dynamodb;" vertex="1" parent="1">
          <mxGeometry x="2228.5599999999995" y="3258" width="59.44" height="59.44" as="geometry" />
        </mxCell>
        <mxCell id="9vAasaOXDANwCtBIAq84-4" style="edgeStyle=orthogonalEdgeStyle;rounded=0;orthogonalLoop=1;jettySize=auto;html=1;exitX=1;exitY=0.75;exitDx=0;exitDy=0;exitPerimeter=0;" edge="1" parent="1" source="9vAasaOXDANwCtBIAq84-2" target="4DdTj5OMiAMX2472lr8G-22">
          <mxGeometry relative="1" as="geometry">
            <Array as="points">
              <mxPoint x="1380" y="3012" />
              <mxPoint x="1380" y="3101" />
            </Array>
          </mxGeometry>
        </mxCell>
        <mxCell id="9vAasaOXDANwCtBIAq84-2" value="" style="sketch=0;points=[[0,0,0],[0.25,0,0],[0.5,0,0],[0.75,0,0],[1,0,0],[0,1,0],[0.25,1,0],[0.5,1,0],[0.75,1,0],[1,1,0],[0,0.25,0],[0,0.5,0],[0,0.75,0],[1,0.25,0],[1,0.5,0],[1,0.75,0]];outlineConnect=0;fontColor=#232F3E;gradientColor=#F78E04;gradientDirection=north;fillColor=#D05C17;strokeColor=#ffffff;dashed=0;verticalLabelPosition=bottom;verticalAlign=top;align=center;html=1;fontSize=12;fontStyle=0;aspect=fixed;shape=mxgraph.aws4.resourceIcon;resIcon=mxgraph.aws4.eks;" vertex="1" parent="1">
          <mxGeometry x="1250" y="2968" width="58" height="58" as="geometry" />
        </mxCell>
        <mxCell id="9vAasaOXDANwCtBIAq84-7" value="" style="group" vertex="1" connectable="0" parent="1">
          <mxGeometry x="1746.5" y="2410" width="78" height="100.88" as="geometry" />
        </mxCell>
        <mxCell id="9vAasaOXDANwCtBIAq84-8" value="" style="sketch=0;outlineConnect=0;fontColor=#232F3E;gradientColor=none;fillColor=#232F3D;strokeColor=none;dashed=0;verticalLabelPosition=bottom;verticalAlign=top;align=center;html=1;fontSize=12;fontStyle=0;aspect=fixed;pointerEvents=1;shape=mxgraph.aws4.users;" vertex="1" parent="9vAasaOXDANwCtBIAq84-7">
          <mxGeometry width="78" height="78" as="geometry" />
        </mxCell>
        <mxCell id="9vAasaOXDANwCtBIAq84-9" value="user" style="rounded=1;html=1;shadow=0;dashed=0;whiteSpace=wrap;fontSize=10;fillColor=#666666;align=center;strokeColor=#4D4D4D;fontColor=#ffffff;" vertex="1" parent="9vAasaOXDANwCtBIAq84-7">
          <mxGeometry x="8" y="84" width="60" height="16.88" as="geometry" />
        </mxCell>
        <mxCell id="9vAasaOXDANwCtBIAq84-14" style="edgeStyle=orthogonalEdgeStyle;rounded=0;orthogonalLoop=1;jettySize=auto;html=1;exitX=0.5;exitY=0;exitDx=0;exitDy=0;exitPerimeter=0;endArrow=none;endFill=0;" edge="1" parent="1" source="9vAasaOXDANwCtBIAq84-10" target="9vAasaOXDANwCtBIAq84-8">
          <mxGeometry relative="1" as="geometry">
            <Array as="points">
              <mxPoint x="1662" y="2440" />
            </Array>
          </mxGeometry>
        </mxCell>
        <mxCell id="9vAasaOXDANwCtBIAq84-10" value="" style="sketch=0;points=[[0,0,0],[0.25,0,0],[0.5,0,0],[0.75,0,0],[1,0,0],[0,1,0],[0.25,1,0],[0.5,1,0],[0.75,1,0],[1,1,0],[0,0.25,0],[0,0.5,0],[0,0.75,0],[1,0.25,0],[1,0.5,0],[1,0.75,0]];outlineConnect=0;fontColor=#232F3E;gradientColor=#945DF2;gradientDirection=north;fillColor=#5A30B5;strokeColor=#ffffff;dashed=0;verticalLabelPosition=bottom;verticalAlign=top;align=center;html=1;fontSize=12;fontStyle=0;aspect=fixed;shape=mxgraph.aws4.resourceIcon;resIcon=mxgraph.aws4.route_53;" vertex="1" parent="1">
          <mxGeometry x="1632.58" y="2590" width="58" height="58" as="geometry" />
        </mxCell>
        <mxCell id="9vAasaOXDANwCtBIAq84-17" style="edgeStyle=orthogonalEdgeStyle;rounded=0;orthogonalLoop=1;jettySize=auto;html=1;exitX=0.5;exitY=1;exitDx=0;exitDy=0;" edge="1" parent="1" source="9vAasaOXDANwCtBIAq84-9" target="4DdTj5OMiAMX2472lr8G-48">
          <mxGeometry relative="1" as="geometry" />
        </mxCell>
      </root>
    </mxGraphModel>
  </diagram>
</mxfile>
